<svg width="24" height="24" viewBox="0 0 24 24" fill="none" xmlns="http://www.w3.org/2000/svg">
<mask id="mask0_347_2291" style="mask-type:alpha" maskUnits="userSpaceOnUse" x="0" y="0" width="24" height="24">
<rect width="24" height="24" fill="#D9D9D9"/>
</mask>
<g mask="url(#mask0_347_2291)">
<path d="M5.85 15.6599C6.7 15.042 7.65 14.5547 8.7 14.198C9.75 13.8418 10.85 13.6638 12 13.6638C13.15 13.6638 14.25 13.8418 15.3 14.198C16.35 14.5547 17.3 15.042 18.15 15.6599C18.7333 15.0103 19.1877 14.2737 19.513 13.4499C19.8377 12.6261 20 11.7469 20 10.8123C20 8.70529 19.221 6.91104 17.663 5.42951C16.1043 3.94862 14.2167 3.20817 12 3.20817C9.78333 3.20817 7.896 3.94862 6.338 5.42951C4.77933 6.91104 4 8.70529 4 10.8123C4 11.7469 4.16267 12.6261 4.488 13.4499C4.81267 14.2737 5.26667 15.0103 5.85 15.6599ZM12 11.7628C11.0167 11.7628 10.1873 11.4421 9.512 10.8008C8.83733 10.1589 8.5 9.37065 8.5 8.43598C8.5 7.50131 8.83733 6.71302 9.512 6.07111C10.1873 5.42983 11.0167 5.10919 12 5.10919C12.9833 5.10919 13.8127 5.42983 14.488 6.07111C15.1627 6.71302 15.5 7.50131 15.5 8.43598C15.5 9.37065 15.1627 10.1589 14.488 10.8008C13.8127 11.4421 12.9833 11.7628 12 11.7628ZM12 20.3174C10.6167 20.3174 9.31667 20.0677 8.1 19.5684C6.88333 19.0697 5.825 18.3926 4.925 17.5371C4.025 16.6817 3.31267 15.6757 2.788 14.5192C2.26267 13.3628 2 12.1271 2 10.8123C2 9.49738 2.26267 8.26172 2.788 7.10526C3.31267 5.94881 4.025 4.94285 4.925 4.08739C5.825 3.23193 6.88333 2.55453 8.1 2.0552C9.31667 1.5565 10.6167 1.30715 12 1.30715C13.3833 1.30715 14.6833 1.5565 15.9 2.0552C17.1167 2.55453 18.175 3.23193 19.075 4.08739C19.975 4.94285 20.6873 5.94881 21.212 7.10526C21.7373 8.26172 22 9.49738 22 10.8123C22 12.1271 21.7373 13.3628 21.212 14.5192C20.6873 15.6757 19.975 16.6817 19.075 17.5371C18.175 18.3926 17.1167 19.0697 15.9 19.5684C14.6833 20.0677 13.3833 20.3174 12 20.3174ZM12 18.4163C12.8833 18.4163 13.7167 18.2937 14.5 18.0485C15.2833 17.8026 16 17.45 16.65 16.9906C16 16.5312 15.2833 16.1785 14.5 15.9327C13.7167 15.6874 12.8833 15.5648 12 15.5648C11.1167 15.5648 10.2833 15.6874 9.5 15.9327C8.71667 16.1785 8 16.5312 7.35 16.9906C8 17.45 8.71667 17.8026 9.5 18.0485C10.2833 18.2937 11.1167 18.4163 12 18.4163ZM12 9.86174C12.4333 9.86174 12.7917 9.72709 13.075 9.45778C13.3583 9.18847 13.5 8.84787 13.5 8.43598C13.5 8.02409 13.3583 7.68349 13.075 7.41418C12.7917 7.14487 12.4333 7.01021 12 7.01021C11.5667 7.01021 11.2083 7.14487 10.925 7.41418C10.6417 7.68349 10.5 8.02409 10.5 8.43598C10.5 8.84787 10.6417 9.18847 10.925 9.45778C11.2083 9.72709 11.5667 9.86174 12 9.86174Z" fill="white"/>
</g>
</svg>
