<svg width="80" height="80" viewBox="0 0 80 80" fill="none" xmlns="http://www.w3.org/2000/svg">
<rect width="80" height="80" rx="10" fill="white"/>
<path d="M29.972 62.188C28.316 61.66 27.416 60.4 27.416 59.056V58.852H29.684V57.856H23.864V58.852H26.168V59.068C26.168 60.544 25.22 61.936 23.516 62.524L24.14 63.496C25.436 63.052 26.348 62.128 26.828 60.976C27.296 61.984 28.16 62.764 29.372 63.148L29.972 62.188ZM28.58 66.952C27.068 66.952 26.192 66.568 26.192 65.872C26.192 65.164 27.068 64.792 28.58 64.792C30.092 64.792 30.968 65.164 30.968 65.872C30.968 66.568 30.092 66.952 28.58 66.952ZM28.58 63.82C26.348 63.82 24.968 64.576 24.968 65.872C24.968 67.156 26.348 67.924 28.58 67.924C30.812 67.924 32.192 67.156 32.192 65.872C32.192 64.576 30.812 63.82 28.58 63.82ZM32.072 59.728V57.088H30.836V63.568H32.072V60.748H33.608V59.728H32.072ZM40.8911 61.552C39.2831 61.876 37.7831 61.984 36.3671 62.008V57.844H35.1311V63.028H36.0071C37.5911 63.028 39.2351 62.92 41.0471 62.56L40.8911 61.552ZM37.5191 64.156H36.2711V67.72H43.4831V66.712H37.5191V64.156ZM43.1111 60.232V57.1H41.8751V64.9H43.1111V61.264H44.6471V60.232H43.1111ZM46.1221 57.736V58.744H49.8421C49.6381 60.388 48.1621 61.708 45.6301 62.38L46.1101 63.364C49.3141 62.512 51.1741 60.544 51.1741 57.736H46.1221ZM48.4501 64.648H52.9261V66.796H48.4501V64.648ZM47.2261 67.792H54.1501V63.664H47.2261V67.792ZM55.6861 59.596H54.1501V57.076H52.9141V63.196H54.1501V60.616H55.6861V59.596Z" fill="#B192F3"/>
<path d="M26.1251 34.3333C24.8751 34.3333 23.8195 33.9028 22.9584 33.0416C22.0973 32.1805 21.6667 31.125 21.6667 29.875C21.6667 28.625 22.0973 27.5694 22.9584 26.7083C23.8195 25.8472 24.8751 25.4166 26.1251 25.4166V20.2916C26.1251 19.625 26.3751 19.0416 26.8751 18.5416C27.3751 18.0416 27.9584 17.7916 28.6251 17.7916H35.5417C35.5417 16.5416 35.9723 15.4861 36.8334 14.625C37.6945 13.7639 38.7501 13.3333 40.0001 13.3333C41.2501 13.3333 42.3056 13.7639 43.1667 14.625C44.0279 15.4861 44.4584 16.5416 44.4584 17.7916H51.3751C52.0417 17.7916 52.6251 18.0416 53.1251 18.5416C53.6251 19.0416 53.8751 19.625 53.8751 20.2916V25.4166C55.1251 25.4166 56.1806 25.8472 57.0417 26.7083C57.9029 27.5694 58.3334 28.625 58.3334 29.875C58.3334 31.125 57.9029 32.1805 57.0417 33.0416C56.1806 33.9028 55.1251 34.3333 53.8751 34.3333V42.5C53.8751 43.1666 53.6251 43.75 53.1251 44.25C52.6251 44.75 52.0417 45 51.3751 45H28.6251C27.9584 45 27.3751 44.75 26.8751 44.25C26.3751 43.75 26.1251 43.1666 26.1251 42.5V34.3333ZM34.2917 30.1666C34.764 30.1666 35.1598 30.0069 35.4792 29.6875C35.7987 29.368 35.9584 28.9722 35.9584 28.5C35.9584 28.0278 35.7987 27.6319 35.4792 27.3125C35.1598 26.993 34.764 26.8333 34.2917 26.8333C33.8195 26.8333 33.4237 26.993 33.1042 27.3125C32.7848 27.6319 32.6251 28.0278 32.6251 28.5C32.6251 28.9722 32.7848 29.368 33.1042 29.6875C33.4237 30.0069 33.8195 30.1666 34.2917 30.1666ZM45.7084 30.1666C46.1806 30.1666 46.5765 30.0069 46.8959 29.6875C47.2154 29.368 47.3751 28.9722 47.3751 28.5C47.3751 28.0278 47.2154 27.6319 46.8959 27.3125C46.5765 26.993 46.1806 26.8333 45.7084 26.8333C45.2362 26.8333 44.8404 26.993 44.5209 27.3125C44.2015 27.6319 44.0417 28.0278 44.0417 28.5C44.0417 28.9722 44.2015 29.368 44.5209 29.6875C44.8404 30.0069 45.2362 30.1666 45.7084 30.1666ZM33.0001 38.125H47.0001V35.625H33.0001V38.125ZM28.6251 42.5H51.3751V20.2916H28.6251V42.5ZM28.6251 42.5V20.2916V42.5Z" fill="#B192F3"/>
</svg>
