<svg width="80" height="80" viewBox="0 0 80 80" fill="none" xmlns="http://www.w3.org/2000/svg">
<rect width="80" height="80" rx="10" fill="white"/>
<path d="M32.104 58.844C30.412 58.844 29.164 59.912 29.164 61.448C29.164 62.984 30.412 64.052 32.104 64.052C33.796 64.052 35.056 62.984 35.056 61.448C35.056 59.912 33.796 58.844 32.104 58.844ZM32.104 59.9C33.112 59.9 33.844 60.5 33.844 61.448C33.844 62.384 33.112 62.996 32.104 62.996C31.108 62.996 30.376 62.384 30.376 61.448C30.376 60.5 31.108 59.9 32.104 59.9ZM36.28 58.076V68.936H37.528V58.076H36.28ZM28.816 66.644C30.736 66.644 33.328 66.62 35.716 66.164L35.632 65.264C33.304 65.612 30.604 65.624 28.66 65.624L28.816 66.644ZM47.0431 60.488H40.8271V63.536H48.5431V62.54H42.0751V61.412H48.3031V58.46H40.8031V59.456H47.0431V60.488ZM49.4671 64.496H39.6391V65.492H42.0631V68.936H43.2991V65.492H45.8071V68.936H47.0431V65.492H49.4791L49.4671 64.496Z" fill="#B192F3"/>
<path d="M23.0417 46.6666C22.4 46.6666 21.9723 46.3611 21.7584 45.75C21.5445 45.1389 21.6973 44.6194 22.2167 44.1916L38.625 31.3125V28.7916C38.625 28.425 38.7549 28.1041 39.0146 27.8291C39.2743 27.5541 39.5875 27.4166 39.9542 27.4166C40.9931 27.4472 41.8716 27.1035 42.5896 26.3854C43.3077 25.6673 43.6667 24.7889 43.6667 23.75C43.6667 22.7416 43.3077 21.8785 42.5896 21.1604C41.8716 20.4423 41.0084 20.0833 40 20.0833C38.9917 20.0833 38.1285 20.4423 37.4105 21.1604C36.6924 21.8785 36.3334 22.7416 36.3334 23.75H33.5834C33.5834 21.9778 34.2098 20.4653 35.4625 19.2125C36.7153 17.9597 38.2278 17.3333 40 17.3333C41.7723 17.3333 43.2848 17.9444 44.5375 19.1666C45.7903 20.3889 46.4167 21.8861 46.4167 23.6583C46.4167 25.1555 45.9431 26.4847 44.9959 27.6458C44.0486 28.8069 42.8417 29.6014 41.375 30.0291V31.3125L57.7834 44.1916C58.3028 44.6194 58.4556 45.1389 58.2417 45.75C58.0278 46.3611 57.6 46.6666 56.9584 46.6666H23.0417ZM27.1667 43.9166H52.8334L40 33.6958L27.1667 43.9166Z" fill="#B192F3"/>
</svg>
