<svg width="80" height="80" viewBox="0 0 80 80" fill="none" xmlns="http://www.w3.org/2000/svg">
<rect width="80" height="80" rx="10" fill="white"/>
<path d="M29.188 59.108V66.272H34.276V59.108H29.188ZM33.064 60.092V65.276H30.4V60.092H33.064ZM36.28 58.076V68.948H37.528V58.076H36.28ZM44.5231 67.976C42.9391 67.976 42.0511 67.64 42.0511 66.98C42.0511 66.332 42.9391 65.984 44.5231 65.984C46.1071 65.984 47.0071 66.332 47.0071 66.98C47.0071 67.64 46.1071 67.976 44.5231 67.976ZM44.5231 65.036C42.1951 65.036 40.7911 65.744 40.7911 66.98C40.7911 68.228 42.1951 68.924 44.5231 68.924C46.8631 68.924 48.2551 68.228 48.2551 66.98C48.2551 65.744 46.8631 65.036 44.5231 65.036ZM43.2031 62.252C43.5991 62.312 44.0671 62.348 44.5471 62.348C45.0271 62.348 45.4711 62.312 45.8671 62.252V63.356H43.2031V62.252ZM44.5471 59.228C46.1551 59.228 47.1271 59.612 47.1271 60.308C47.1271 61.004 46.1551 61.4 44.5471 61.4C42.9271 61.4 41.9551 61.004 41.9551 60.308C41.9551 59.612 42.9271 59.228 44.5471 59.228ZM47.1031 63.356V61.928C47.9311 61.568 48.4111 61.016 48.4111 60.308C48.4111 59.036 46.9111 58.268 44.5471 58.268C42.1711 58.268 40.6831 59.036 40.6831 60.308C40.6831 61.016 41.1511 61.568 41.9671 61.916V63.356H39.6391V64.34H49.4431V63.356H47.1031Z" fill="#B192F3"/>
<path d="M39.9999 15.3333C41.1666 15.3333 42.243 15.4305 43.2291 15.625C44.2152 15.8194 45.4027 16.1805 46.7916 16.7083L43.3749 18.2083C42.8471 18.0694 42.3471 17.9722 41.8749 17.9166C41.4027 17.8611 40.7777 17.8333 39.9999 17.8333C39.4444 17.8333 38.8124 17.875 38.1041 17.9583C37.3958 18.0416 36.7499 18.1805 36.1666 18.375C38.2499 20.7361 40.3819 22.6389 42.5624 24.0833C44.743 25.5278 47.7916 26.0833 51.7083 25.75L52.6666 28.125C48.9721 28.5972 45.7569 28.25 43.0208 27.0833C40.2846 25.9166 37.9305 24.1944 35.9583 21.9166C35.0138 24.1666 33.6596 26.1319 31.8958 27.8125C30.1319 29.493 28.111 30.7916 25.8333 31.7083C25.8333 35.7361 27.2083 39.1528 29.9583 41.9583C32.7083 44.7639 36.0555 46.1666 39.9999 46.1666C43.9721 46.1666 47.3263 44.7847 50.0624 42.0208C52.7985 39.2569 54.1666 35.9166 54.1666 32C54.1666 31.3889 54.1319 30.8403 54.0624 30.3541L53.8749 29.0416L55.3749 25.5C55.8194 26.6944 56.1458 27.7639 56.3541 28.7083C56.5624 29.6528 56.6666 30.75 56.6666 32C56.6666 34.3055 56.236 36.4722 55.3749 38.5C54.5138 40.5278 53.3333 42.2917 51.8333 43.7917C50.3333 45.2917 48.5694 46.4791 46.5416 47.3541C44.5138 48.2291 42.3333 48.6666 39.9999 48.6666C37.6666 48.6666 35.486 48.2361 33.4583 47.375C31.4305 46.5139 29.6666 45.3333 28.1666 43.8333C26.6666 42.3333 25.486 40.5694 24.6249 38.5416C23.7638 36.5139 23.3333 34.3333 23.3333 32C23.3333 29.6666 23.7638 27.4861 24.6249 25.4583C25.486 23.4305 26.6666 21.6666 28.1666 20.1666C29.6666 18.6666 31.4305 17.4861 33.4583 16.625C35.486 15.7639 37.6666 15.3333 39.9999 15.3333ZM34.7499 31.5416C35.3888 31.5416 35.9235 31.7569 36.3541 32.1875C36.7846 32.618 36.9999 33.1528 36.9999 33.7916C36.9999 34.4305 36.7846 34.9653 36.3541 35.3958C35.9235 35.8264 35.3888 36.0416 34.7499 36.0416C34.111 36.0416 33.5763 35.8264 33.1458 35.3958C32.7152 34.9653 32.4999 34.4305 32.4999 33.7916C32.4999 33.1528 32.7152 32.618 33.1458 32.1875C33.5763 31.7569 34.111 31.5416 34.7499 31.5416ZM45.2916 31.5416C45.9305 31.5416 46.4652 31.7569 46.8958 32.1875C47.3263 32.618 47.5416 33.1528 47.5416 33.7916C47.5416 34.4305 47.3263 34.9653 46.8958 35.3958C46.4652 35.8264 45.9305 36.0416 45.2916 36.0416C44.6527 36.0416 44.118 35.8264 43.6874 35.3958C43.2569 34.9653 43.0416 34.4305 43.0416 33.7916C43.0416 33.1528 43.2569 32.618 43.6874 32.1875C44.118 31.7569 44.6527 31.5416 45.2916 31.5416V31.5416ZM53.4999 12.7083L55.3333 16.9583L59.4583 18.6666L55.3333 20.4166L53.4999 24.6666L51.6249 20.4166L47.4999 18.6666L51.6249 16.9583L53.4999 12.7083ZM26.2499 28.6666C27.5833 28.1666 29.1041 27.0416 30.8124 25.2916C32.5208 23.5416 33.736 21.4166 34.4583 18.9166C32.0416 20 30.2152 21.375 28.9791 23.0416C27.743 24.7083 26.8333 26.5833 26.2499 28.6666Z" fill="#B192F3"/>
</svg>
