<svg width="80" height="80" viewBox="0 0 80 80" fill="none" xmlns="http://www.w3.org/2000/svg">
<rect width="80" height="80" rx="10" fill="white"/>
<path d="M29.032 61.916V62.924H32.812C32.596 64.64 31.06 66.044 28.576 66.8L29.092 67.784C32.248 66.824 34.156 64.784 34.156 61.916H29.032ZM31.444 68.144H30.196V71.72H37.492V70.712H31.444V68.144ZM37.06 64.256V61.088H35.824V68.936H37.06V65.276H38.608V64.256H37.06ZM46.2271 66.008C44.5591 65.456 43.5991 64.1 43.5991 62.636V61.58H42.3391V62.636C42.3391 64.148 41.3791 65.612 39.6751 66.2L40.2871 67.172C41.5711 66.728 42.4951 65.792 42.9871 64.616C43.4671 65.696 44.3671 66.548 45.6151 66.98L46.2271 66.008ZM41.2711 69.092H47.3431V71.924H48.5791V68.096H41.2711V69.092ZM47.3431 61.076V67.58H48.5791V61.076H47.3431Z" fill="#B192F3"/>
<path d="M39.9583 52.3334L32.4167 37C30.5 37.3334 28.7847 36.9167 27.2708 35.75C25.7569 34.5834 25 32.9584 25 30.875C25 29.625 25.3819 28.4028 26.1458 27.2084C26.9097 26.0139 28.0278 25.2084 29.5 24.7917C29.9444 22.0417 31.1736 19.8334 33.1875 18.1667C35.2014 16.5 37.4722 15.6667 40 15.6667C42.5278 15.6667 44.7917 16.5 46.7917 18.1667C48.7917 19.8334 50.0278 22.0417 50.5 24.7917C51.9722 25.2084 53.0903 26.0139 53.8542 27.2084C54.6181 28.4028 55 29.625 55 30.875C55 32.9584 54.2153 34.5834 52.6458 35.75C51.0764 36.9167 49.4167 37.3334 47.6667 37L39.9583 52.3334ZM31.0833 34.625C31.5833 34.625 32.0556 34.5556 32.5 34.4167C32.9444 34.2778 33.2917 34.0834 33.5417 33.8334L34.625 32.7084L35.5833 33.5417C36.2778 34.0139 37.0347 34.3125 37.8542 34.4375C38.6736 34.5625 39.4306 34.625 40.125 34.625C40.8194 34.625 41.5278 34.5625 42.25 34.4375C42.9722 34.3125 43.6806 34.0139 44.375 33.5417L45.375 32.7084L46.4167 33.8334C46.6667 34.0834 47.0208 34.2778 47.4792 34.4167C47.9375 34.5556 48.4028 34.625 48.875 34.625C49.8194 34.625 50.6597 34.2431 51.3958 33.4792C52.1319 32.7153 52.5 31.8472 52.5 30.875C52.5 30.0139 52.2361 29.2639 51.7083 28.625C51.1806 27.9861 50.4306 27.5834 49.4583 27.4167L48 27.2084L47.9167 25.5834C47.6111 23.3889 46.7569 21.6042 45.3542 20.2292C43.9514 18.8542 42.1667 18.1667 40 18.1667C37.8333 18.1667 36.0417 18.8542 34.625 20.2292C33.2083 21.6042 32.3611 23.3889 32.0833 25.5834L31.9583 27.2084L30.5 27.5417C29.6667 27.7639 28.9583 28.1597 28.375 28.7292C27.7917 29.2986 27.5 30.0139 27.5 30.875C27.5 31.8472 27.8681 32.7153 28.6042 33.4792C29.3403 34.2431 30.1667 34.625 31.0833 34.625ZM39.9583 46.6667L45.2917 36.1667L45.0417 35.9167C44.2639 36.3334 43.4236 36.6389 42.5208 36.8334C41.6181 37.0278 40.8194 37.125 40.125 37.125C39.2361 37.125 38.3333 37.0278 37.4167 36.8334C36.5 36.6389 35.6944 36.3334 35 35.9167L34.75 36.125L39.9583 46.6667Z" fill="#B192F3"/>
</svg>
