<svg width="80" height="80" viewBox="0 0 80 80" fill="none" xmlns="http://www.w3.org/2000/svg">
<rect width="80" height="80" rx="10" fill="white"/>
<path d="M32.404 61.988H31.168V63.764C31.168 65.768 30.112 67.82 28.42 68.648L29.176 69.644C30.412 69.008 31.324 67.748 31.792 66.248C32.26 67.664 33.124 68.84 34.288 69.44L35.044 68.456C33.412 67.652 32.404 65.696 32.404 63.764V61.988ZM38.692 65.384H37V61.088H35.764V71.924H37V66.404H38.692V65.384ZM43.5031 67.76H45.7231V69.632H43.5031V67.76ZM46.9471 69.632V67.76H48.5431V66.764H42.0511V65.264H48.3031V61.844H40.8151V62.84H47.0791V64.28H40.8391V67.76H42.2791V69.632H39.6511V70.652H49.4671V69.632H46.9471Z" fill="#B192F3"/>
<path d="M24.1667 39C23.5001 39 22.9167 38.75 22.4167 38.25C21.9167 37.75 21.6667 37.1666 21.6667 36.5V19.8333C21.6667 19.1666 21.9167 18.5833 22.4167 18.0833C22.9167 17.5833 23.5001 17.3333 24.1667 17.3333H55.8334C56.5001 17.3333 57.0834 17.5833 57.5834 18.0833C58.0834 18.5833 58.3334 19.1666 58.3334 19.8333V36.5C58.3334 37.1666 58.0834 37.75 57.5834 38.25C57.0834 38.75 56.5001 39 55.8334 39H24.1667ZM24.1667 36.5H55.8334V19.8333H24.1667V36.5ZM25.1251 44.8333L25.0001 42.3333L54.9584 40.75L55.0834 43.25L25.1251 44.8333ZM25.0001 48.9583V46.4583H55.0001V48.9583H25.0001ZM24.1667 36.5V19.8333V36.5ZM37.5001 32.75C39.5556 32.75 41.4862 32.3889 43.2917 31.6666C45.0973 30.9444 46.6667 29.9166 48.0001 28.5833C48.139 29.5555 48.6459 30.3333 49.5209 30.9166C50.3959 31.5 51.389 31.8333 52.5001 31.9166V24.4166C51.3612 24.5 50.3473 24.8403 49.4584 25.4375C48.5695 26.0347 48.0695 26.8194 47.9584 27.7916C46.514 26.375 44.9167 25.3194 43.1667 24.625C41.4167 23.9305 39.5279 23.5833 37.5001 23.5833C35.2501 23.5833 33.1598 24 31.2292 24.8333C29.2987 25.6666 27.8056 26.7778 26.7501 28.1666C27.8056 29.5555 29.2987 30.6666 31.2292 31.5C33.1598 32.3333 35.2501 32.75 37.5001 32.75Z" fill="#B192F3"/>
</svg>
