<svg width="80" height="80" viewBox="0 0 80 80" fill="none" xmlns="http://www.w3.org/2000/svg">
<rect width="80" height="80" rx="10" fill="white"/>
<path d="M29.224 58.228V59.236H33.088C32.872 61.732 31.528 63.64 28.684 65.008L29.344 65.992C33.064 64.192 34.36 61.456 34.36 58.228H29.224ZM36.316 57.088V67.924H37.552V57.088H36.316ZM41.3311 62.056H44.9551V61.06H41.3311V59.044H45.1591V58.024H40.0951V65.392H40.9711C42.9151 65.392 44.3551 65.332 46.0231 65.068L45.9031 64.06C44.3791 64.312 43.0591 64.372 41.3311 64.384V62.056ZM49.7311 61.336H48.0391V57.076H46.8031V67.936H48.0391V62.356H49.7311V61.336Z" fill="#B192F3"/>
<path d="M48.2917 31.75L39.4167 22.875L48.2917 14L57.1667 22.875L48.2917 31.75ZM25 28.75V16.2083H37.5417V28.75H25ZM42.4167 46.1667V33.625H54.9583V46.1667H42.4167ZM25 46.1667V33.625H37.5417V46.1667H25ZM27.5 26.25H35.0417V18.7083H27.5V26.25ZM48.4167 28.375L53.7917 23L48.4167 17.625L43.0417 23L48.4167 28.375ZM44.9167 43.6667H52.4583V36.125H44.9167V43.6667ZM27.5 43.6667H35.0417V36.125H27.5V43.6667Z" fill="#B192F3"/>
</svg>
