<svg width="18" height="18" viewBox="0 0 18 18" fill="none" xmlns="http://www.w3.org/2000/svg">
<path d="M7.83317 12.8333L13.7082 6.95834L12.5415 5.79167L7.83317 10.5L5.45817 8.125L4.2915 9.29167L7.83317 12.8333ZM8.99984 17.3333C7.84706 17.3333 6.76373 17.1144 5.74984 16.6767C4.73595 16.2394 3.854 15.6458 3.104 14.8958C2.354 14.1458 1.76039 13.2639 1.32317 12.25C0.885393 11.2361 0.666504 10.1528 0.666504 9C0.666504 7.84723 0.885393 6.76389 1.32317 5.75001C1.76039 4.73612 2.354 3.85417 3.104 3.10417C3.854 2.35417 4.73595 1.76028 5.74984 1.32251C6.76373 0.885283 7.84706 0.666672 8.99984 0.666672C10.1526 0.666672 11.2359 0.885283 12.2498 1.32251C13.2637 1.76028 14.1457 2.35417 14.8957 3.10417C15.6457 3.85417 16.2393 4.73612 16.6765 5.75001C17.1143 6.76389 17.3332 7.84723 17.3332 9C17.3332 10.1528 17.1143 11.2361 16.6765 12.25C16.2393 13.2639 15.6457 14.1458 14.8957 14.8958C14.1457 15.6458 13.2637 16.2394 12.2498 16.6767C11.2359 17.1144 10.1526 17.3333 8.99984 17.3333ZM8.99984 15.6667C10.8609 15.6667 12.4373 15.0208 13.729 13.7292C15.0207 12.4375 15.6665 10.8611 15.6665 9C15.6665 7.13889 15.0207 5.5625 13.729 4.27084C12.4373 2.97917 10.8609 2.33334 8.99984 2.33334C7.13873 2.33334 5.56234 2.97917 4.27067 4.27084C2.979 5.5625 2.33317 7.13889 2.33317 9C2.33317 10.8611 2.979 12.4375 4.27067 13.7292C5.56234 15.0208 7.13873 15.6667 8.99984 15.6667Z" fill="white"/>
</svg>
