<svg width="28" height="28" viewBox="0 0 28 28" fill="none" xmlns="http://www.w3.org/2000/svg">
<mask id="mask0_400_1264" style="mask-type:alpha" maskUnits="userSpaceOnUse" x="0" y="0" width="28" height="28">
<rect width="28" height="28" fill="#D9D9D9"/>
</mask>
<g mask="url(#mask0_400_1264)">
<path d="M7.00004 16.3333H21V14H7.00004V16.3333ZM7.00004 12.8333H21V10.5H7.00004V12.8333ZM7.00004 9.33334H21V7H7.00004V9.33334ZM25.6667 25.6667L21 21H4.66671C4.02504 21 3.47593 20.7717 3.01937 20.3152C2.56204 19.8578 2.33337 19.3083 2.33337 18.6667V4.66667C2.33337 4.025 2.56204 3.4755 3.01937 3.01817C3.47593 2.56161 4.02504 2.33334 4.66671 2.33334H23.3334C23.975 2.33334 24.5245 2.56161 24.9819 3.01817C25.4384 3.4755 25.6667 4.025 25.6667 4.66667V25.6667ZM4.66671 4.66667V18.6667H21.9625L23.3334 20.0375V4.66667H4.66671Z" fill="#B192F3"/>
</g>
</svg>
