<svg width="28" height="28" viewBox="0 0 28 28" fill="none" xmlns="http://www.w3.org/2000/svg">
<mask id="mask0_400_1265" style="mask-type:alpha" maskUnits="userSpaceOnUse" x="0" y="0" width="28" height="28">
<rect width="28" height="28" fill="#B192F3"/>
</mask>
<g mask="url(#mask0_400_1265)">
<path d="M6.99996 25.6666C6.35829 25.6666 5.80918 25.4384 5.35263 24.9818C4.89529 24.5245 4.66663 23.975 4.66663 23.3333V4.66665C4.66663 4.02498 4.89529 3.47548 5.35263 3.01815C5.80918 2.56159 6.35829 2.33331 6.99996 2.33331H16.3333L23.3333 9.33331V14H21V10.5H15.1666V4.66665H6.99996V23.3333H14V25.6666H6.99996ZM21.35 16.9458L22.6041 18.2L18.0833 22.6916V23.9166H19.3083L23.8291 19.425L25.0541 20.65L20.0375 25.6666H16.3333V21.9625L21.35 16.9458ZM25.0541 20.65L21.35 16.9458L23.0416 15.2541C23.2555 15.0403 23.5277 14.9333 23.8583 14.9333C24.1889 14.9333 24.4611 15.0403 24.675 15.2541L26.7458 17.325C26.9597 17.5389 27.0666 17.8111 27.0666 18.1416C27.0666 18.4722 26.9597 18.7444 26.7458 18.9583L25.0541 20.65Z" fill="#B192F3"/>
</g>
</svg>
