<svg width="17" height="18" viewBox="0 0 17 18" fill="none" xmlns="http://www.w3.org/2000/svg">
<path d="M2.00016 17.3333C1.54183 17.3333 1.14961 17.1703 0.823496 16.8442C0.496829 16.5175 0.333496 16.125 0.333496 15.6667V2.33334C0.333496 1.87501 0.496829 1.4825 0.823496 1.15584C1.14961 0.829727 1.54183 0.666672 2.00016 0.666672H8.66683L13.6668 5.66667V9H12.0002V6.5H7.8335V2.33334H2.00016V15.6667H7.00016V17.3333H2.00016ZM12.2502 11.1042L13.146 12L9.91683 15.2083V16.0833H10.7918L14.021 12.875L14.896 13.75L11.3127 17.3333H8.66683V14.6875L12.2502 11.1042ZM14.896 13.75L12.2502 11.1042L13.4585 9.89584C13.6113 9.74306 13.8057 9.66667 14.0418 9.66667C14.2779 9.66667 14.4724 9.74306 14.6252 9.89584L16.1043 11.375C16.2571 11.5278 16.3335 11.7222 16.3335 11.9583C16.3335 12.1944 16.2571 12.3889 16.1043 12.5417L14.896 13.75Z" fill="white"/>
</svg>

