<svg width="28" height="28" viewBox="0 0 28 28" fill="none" xmlns="http://www.w3.org/2000/svg">
<mask id="mask0_400_1263" style="mask-type:alpha" maskUnits="userSpaceOnUse" x="0" y="0" width="28" height="28">
<rect width="28" height="28" fill="#D9D9D9"/>
</mask>
<g mask="url(#mask0_400_1263)">
<path d="M14 24.5L12.3084 22.9833C10.3445 21.2139 8.72087 19.6875 7.43754 18.4042C6.15421 17.1208 5.13337 15.9686 4.37504 14.9473C3.61671 13.9269 3.08704 12.9889 2.78604 12.1333C2.48426 11.2778 2.33337 10.4028 2.33337 9.50833C2.33337 7.68056 2.94587 6.15417 4.17087 4.92917C5.39587 3.70417 6.92226 3.09167 8.75004 3.09167C9.76115 3.09167 10.7237 3.30556 11.6375 3.73333C12.5514 4.16111 13.3389 4.76389 14 5.54167C14.6612 4.76389 15.4487 4.16111 16.3625 3.73333C17.2764 3.30556 18.2389 3.09167 19.25 3.09167C21.0778 3.09167 22.6042 3.70417 23.8292 4.92917C25.0542 6.15417 25.6667 7.68056 25.6667 9.50833C25.6667 10.4028 25.5162 11.2778 25.2152 12.1333C24.9134 12.9889 24.3834 13.9269 23.625 14.9473C22.8667 15.9686 21.8459 17.1208 20.5625 18.4042C19.2792 19.6875 17.6556 21.2139 15.6917 22.9833L14 24.5ZM14 21.35C15.8667 19.6778 17.4028 18.2436 18.6084 17.0473C19.8139 15.8519 20.7667 14.812 21.4667 13.9277C22.1667 13.0426 22.6528 12.2547 22.925 11.564C23.1973 10.8741 23.3334 10.1889 23.3334 9.50833C23.3334 8.34167 22.9445 7.36944 22.1667 6.59167C21.3889 5.81389 20.4167 5.425 19.25 5.425C18.3362 5.425 17.4903 5.68244 16.7125 6.19733C15.9348 6.713 15.4 7.36944 15.1084 8.16667H12.8917C12.6 7.36944 12.0653 6.713 11.2875 6.19733C10.5098 5.68244 9.66393 5.425 8.75004 5.425C7.58337 5.425 6.61115 5.81389 5.83337 6.59167C5.0556 7.36944 4.66671 8.34167 4.66671 9.50833C4.66671 10.1889 4.80282 10.8741 5.07504 11.564C5.34726 12.2547 5.83337 13.0426 6.53337 13.9277C7.23337 14.812 8.18615 15.8519 9.39171 17.0473C10.5973 18.2436 12.1334 19.6778 14 21.35Z" fill="#B192F3"/>
</g>
</svg>
