<svg width="24" height="24" viewBox="0 0 24 24" fill="none" xmlns="http://www.w3.org/2000/svg">
<path d="M3.13218 10.8916C1.65352 1.39161 10.0341 3.89159 11.5129 6.89167C17.9219 0.39163 20.8799 6.39166 20.3869 9.89166L16.443 15.3917L11.5129 19.8917L7.0762 15.8917L3.13218 10.8916Z" fill="#B192F3"/>
<mask id="mask0_491_1666" style="mask-type:alpha" maskUnits="userSpaceOnUse" x="0" y="0" width="24" height="24">
<rect width="23.6635" height="24" fill="#D9D9D9"/>
</mask>
<g mask="url(#mask0_491_1666)">
<path d="M11.8317 21L10.402 19.7C8.7423 18.1834 7.37015 16.875 6.28557 15.775C5.201 14.675 4.33827 13.6874 3.69738 12.812C3.0565 11.9374 2.60887 11.1334 2.35448 10.4C2.09944 9.66669 1.97192 8.91669 1.97192 8.15002C1.97192 6.58336 2.48956 5.27502 3.52484 4.22502C4.56011 3.17502 5.8501 2.65002 7.3948 2.65002C8.24931 2.65002 9.06274 2.83336 9.83509 3.20002C10.6074 3.56669 11.273 4.08336 11.8317 4.75002C12.3904 4.08336 13.056 3.56669 13.8283 3.20002C14.6006 2.83336 15.4141 2.65002 16.2686 2.65002C17.8133 2.65002 19.1033 3.17502 20.1386 4.22502C21.1738 5.27502 21.6915 6.58336 21.6915 8.15002C21.6915 8.91669 21.5643 9.66669 21.3099 10.4C21.0549 11.1334 20.6069 11.9374 19.966 12.812C19.3251 13.6874 18.4624 14.675 17.3778 15.775C16.2932 16.875 14.9211 18.1834 13.2614 19.7L11.8317 21ZM11.8317 18.3C13.4093 16.8667 14.7075 15.6374 15.7263 14.612C16.7451 13.5874 17.5504 12.696 18.142 11.938C18.7335 11.1794 19.1444 10.504 19.3744 9.91202C19.6045 9.32069 19.7195 8.73336 19.7195 8.15002C19.7195 7.15002 19.3909 6.31669 18.7335 5.65002C18.0762 4.98336 17.2546 4.65002 16.2686 4.65002C15.4962 4.65002 14.7814 4.87069 14.1241 5.31202C13.4668 5.75402 13.0149 6.31669 12.7684 7.00002H10.895C10.6485 6.31669 10.1966 5.75402 9.5393 5.31202C8.88198 4.87069 8.16715 4.65002 7.3948 4.65002C6.40882 4.65002 5.58717 4.98336 4.92986 5.65002C4.27254 6.31669 3.94388 7.15002 3.94388 8.15002C3.94388 8.73336 4.05891 9.32069 4.28897 9.91202C4.51903 10.504 4.92986 11.1794 5.52144 11.938C6.11303 12.696 6.91824 13.5874 7.93709 14.612C8.95593 15.6374 10.2541 16.8667 11.8317 18.3Z" fill="white"/>
</g>
</svg>
