<svg width="24" height="24" viewBox="0 0 24 24" fill="none" xmlns="http://www.w3.org/2000/svg">
<mask id="mask0_119_47" style="mask-type:alpha" maskUnits="userSpaceOnUse" x="0" y="0" width="24" height="24">
<rect width="24" height="24" fill="#D9D9D9"/>
</mask>
<g mask="url(#mask0_119_47)">
<path d="M11 23V21C8.91672 20.7667 7.12938 19.9043 5.63805 18.413C4.14605 16.921 3.28338 15.1333 3.05005 13.05H1.05005V11.05H3.05005C3.28338 8.96667 4.14605 7.17934 5.63805 5.68801C7.12938 4.19601 8.91672 3.33334 11 3.10001V1.10001H13V3.10001C15.0834 3.33334 16.8711 4.19601 18.3631 5.68801C19.8544 7.17934 20.7167 8.96667 20.9501 11.05H22.9501V13.05H20.9501C20.7167 15.1333 19.8544 16.921 18.3631 18.413C16.8711 19.9043 15.0834 20.7667 13 21V23H11ZM12 19.05C13.9334 19.05 15.5834 18.3667 16.95 17C18.3167 15.6333 19 13.9833 19 12.05C19 10.1167 18.3167 8.46667 16.95 7.10001C15.5834 5.73334 13.9334 5.05001 12 5.05001C10.0667 5.05001 8.41672 5.73334 7.05005 7.10001C5.68338 8.46667 5.00005 10.1167 5.00005 12.05C5.00005 13.9833 5.68338 15.6333 7.05005 17C8.41672 18.3667 10.0667 19.05 12 19.05Z" fill="#CBCBCB"/>
</g>
</svg>
