<svg width="40" height="40" viewBox="0 0 40 40" fill="none" xmlns="http://www.w3.org/2000/svg">
<circle cx="20" cy="20" r="20" fill="#B192F3"/>
<mask id="mask0_402_1272" style="mask-type:alpha" maskUnits="userSpaceOnUse" x="8" y="7" width="24" height="24">
<rect x="8" y="7" width="24" height="24" fill="#D9D9D9"/>
</mask>
<g mask="url(#mask0_402_1272)">
<path d="M12.5 19.125C11.8 19.125 11.2083 18.8833 10.725 18.4C10.2417 17.9167 10 17.325 10 16.625C10 15.925 10.2417 15.3333 10.725 14.85C11.2083 14.3667 11.8 14.125 12.5 14.125C13.2 14.125 13.7917 14.3667 14.275 14.85C14.7583 15.3333 15 15.925 15 16.625C15 17.325 14.7583 17.9167 14.275 18.4C13.7917 18.8833 13.2 19.125 12.5 19.125ZM17 15.125C16.3 15.125 15.7083 14.8833 15.225 14.4C14.7417 13.9167 14.5 13.325 14.5 12.625C14.5 11.925 14.7417 11.3333 15.225 10.85C15.7083 10.3667 16.3 10.125 17 10.125C17.7 10.125 18.2917 10.3667 18.775 10.85C19.2583 11.3333 19.5 11.925 19.5 12.625C19.5 13.325 19.2583 13.9167 18.775 14.4C18.2917 14.8833 17.7 15.125 17 15.125ZM23 15.125C22.3 15.125 21.7083 14.8833 21.225 14.4C20.7417 13.9167 20.5 13.325 20.5 12.625C20.5 11.925 20.7417 11.3333 21.225 10.85C21.7083 10.3667 22.3 10.125 23 10.125C23.7 10.125 24.2917 10.3667 24.775 10.85C25.2583 11.3333 25.5 11.925 25.5 12.625C25.5 13.325 25.2583 13.9167 24.775 14.4C24.2917 14.8833 23.7 15.125 23 15.125ZM27.5 19.125C26.8 19.125 26.2083 18.8833 25.725 18.4C25.2417 17.9167 25 17.325 25 16.625C25 15.925 25.2417 15.3333 25.725 14.85C26.2083 14.3667 26.8 14.125 27.5 14.125C28.2 14.125 28.7917 14.3667 29.275 14.85C29.7583 15.3333 30 15.925 30 16.625C30 17.325 29.7583 17.9167 29.275 18.4C28.7917 18.8833 28.2 19.125 27.5 19.125ZM14.65 29.125C13.9 29.125 13.271 28.8373 12.763 28.262C12.2543 27.6873 12 27.0083 12 26.225C12 25.3583 12.296 24.6 12.888 23.95C13.4793 23.3 14.0667 22.6583 14.65 22.025C15.1333 21.5083 15.55 20.9457 15.9 20.337C16.25 19.729 16.6667 19.1583 17.15 18.625C17.5167 18.1917 17.9417 17.8333 18.425 17.55C18.9083 17.2667 19.4333 17.125 20 17.125C20.5667 17.125 21.0917 17.2583 21.575 17.525C22.0583 17.7917 22.4833 18.1417 22.85 18.575C23.3167 19.1083 23.729 19.6833 24.087 20.3C24.4457 20.9167 24.8667 21.4917 25.35 22.025C25.9333 22.6583 26.521 23.3 27.113 23.95C27.7043 24.6 28 25.3583 28 26.225C28 27.0083 27.746 27.6873 27.238 28.262C26.7293 28.8373 26.1 29.125 25.35 29.125C24.45 29.125 23.5583 29.05 22.675 28.9C21.7917 28.75 20.9 28.675 20 28.675C19.1 28.675 18.2083 28.75 17.325 28.9C16.4417 29.05 15.55 29.125 14.65 29.125Z" fill="white"/>
</g>
</svg>
