<svg width="54" height="54" viewBox="0 0 54 54" fill="none" xmlns="http://www.w3.org/2000/svg">
<circle cx="27" cy="27" r="27" fill="#CBCBCB"/>
<mask id="mask0_402_1357" style="mask-type:alpha" maskUnits="userSpaceOnUse" x="10" y="9" width="34" height="33">
<rect x="10.8" y="9.45001" width="32.4" height="32.4" fill="#D9D9D9"/>
</mask>
<g mask="url(#mask0_402_1357)">
<path d="M16.875 25.8188C15.93 25.8188 15.1312 25.4925 14.4787 24.84C13.8262 24.1875 13.5 23.3888 13.5 22.4438C13.5 21.4988 13.8262 20.7 14.4787 20.0475C15.1312 19.395 15.93 19.0688 16.875 19.0688C17.82 19.0688 18.6188 19.395 19.2713 20.0475C19.9238 20.7 20.25 21.4988 20.25 22.4438C20.25 23.3888 19.9238 24.1875 19.2713 24.84C18.6188 25.4925 17.82 25.8188 16.875 25.8188ZM22.95 20.4188C22.005 20.4188 21.2062 20.0925 20.5537 19.44C19.9013 18.7875 19.575 17.9888 19.575 17.0438C19.575 16.0988 19.9013 15.3 20.5537 14.6475C21.2062 13.995 22.005 13.6688 22.95 13.6688C23.895 13.6688 24.6937 13.995 25.3462 14.6475C25.9987 15.3 26.325 16.0988 26.325 17.0438C26.325 17.9888 25.9987 18.7875 25.3462 19.44C24.6937 20.0925 23.895 20.4188 22.95 20.4188ZM31.05 20.4188C30.105 20.4188 29.3063 20.0925 28.6538 19.44C28.0013 18.7875 27.675 17.9888 27.675 17.0438C27.675 16.0988 28.0013 15.3 28.6538 14.6475C29.3063 13.995 30.105 13.6688 31.05 13.6688C31.995 13.6688 32.7937 13.995 33.4462 14.6475C34.0987 15.3 34.425 16.0988 34.425 17.0438C34.425 17.9888 34.0987 18.7875 33.4462 19.44C32.7937 20.0925 31.995 20.4188 31.05 20.4188ZM37.125 25.8188C36.18 25.8188 35.3813 25.4925 34.7288 24.84C34.0763 24.1875 33.75 23.3888 33.75 22.4438C33.75 21.4988 34.0763 20.7 34.7288 20.0475C35.3813 19.395 36.18 19.0688 37.125 19.0688C38.07 19.0688 38.8687 19.395 39.5212 20.0475C40.1737 20.7 40.5 21.4988 40.5 22.4438C40.5 23.3888 40.1737 24.1875 39.5212 24.84C38.8687 25.4925 38.07 25.8188 37.125 25.8188ZM19.7775 39.3188C18.765 39.3188 17.9159 38.9304 17.2301 38.1537C16.5434 37.3779 16.2 36.4613 16.2 35.4038C16.2 34.2338 16.5996 33.21 17.3988 32.3325C18.1971 31.455 18.99 30.5888 19.7775 29.7338C20.43 29.0363 20.9925 28.2767 21.465 27.455C21.9375 26.6342 22.5 25.8638 23.1525 25.1438C23.6475 24.5588 24.2213 24.075 24.8738 23.6925C25.5263 23.31 26.235 23.1188 27 23.1188C27.765 23.1188 28.4738 23.2988 29.1263 23.6588C29.7788 24.0188 30.3525 24.4913 30.8475 25.0763C31.4775 25.7963 32.0342 26.5725 32.5175 27.405C33.0017 28.2375 33.57 29.0138 34.2225 29.7338C35.01 30.5888 35.8034 31.455 36.6026 32.3325C37.4009 33.21 37.8 34.2338 37.8 35.4038C37.8 36.4613 37.4571 37.3779 36.7713 38.1537C36.0846 38.9304 35.235 39.3188 34.2225 39.3188C33.0075 39.3188 31.8038 39.2175 30.6113 39.015C29.4188 38.8125 28.215 38.7113 27 38.7113C25.785 38.7113 24.5812 38.8125 23.3887 39.015C22.1962 39.2175 20.9925 39.3188 19.7775 39.3188Z" fill="white"/>
</g>
</svg>
