<svg width="28" height="28" viewBox="0 0 28 28" fill="none" xmlns="http://www.w3.org/2000/svg">
<mask id="mask0_400_1260" style="mask-type:alpha" maskUnits="userSpaceOnUse" x="0" y="0" width="28" height="28">
<rect width="28" height="28" fill="#D9D9D9"/>
</mask>
<g mask="url(#mask0_400_1260)">
<path d="M14.0001 18.6667C15.4584 18.6667 16.6982 18.1565 17.7194 17.136C18.7399 16.1148 19.2501 14.875 19.2501 13.4167C19.2501 11.9584 18.7399 10.7186 17.7194 9.69735C16.6982 8.67691 15.4584 8.16669 14.0001 8.16669C12.5417 8.16669 11.302 8.67691 10.2807 9.69735C9.2603 10.7186 8.75008 11.9584 8.75008 13.4167C8.75008 14.875 9.2603 16.1148 10.2807 17.136C11.302 18.1565 12.5417 18.6667 14.0001 18.6667ZM14.0001 16.5667C13.1251 16.5667 12.3815 16.2602 11.7694 15.6474C11.1565 15.0352 10.8501 14.2917 10.8501 13.4167C10.8501 12.5417 11.1565 11.7977 11.7694 11.1849C12.3815 10.5727 13.1251 10.2667 14.0001 10.2667C14.8751 10.2667 15.619 10.5727 16.2319 11.1849C16.844 11.7977 17.1501 12.5417 17.1501 13.4167C17.1501 14.2917 16.844 15.0352 16.2319 15.6474C15.619 16.2602 14.8751 16.5667 14.0001 16.5667ZM14.0001 22.1667C11.1612 22.1667 8.57508 21.3741 6.24175 19.789C3.90841 18.2047 2.21675 16.0806 1.16675 13.4167C2.21675 10.7528 3.90841 8.6283 6.24175 7.04319C8.57508 5.45885 11.1612 4.66669 14.0001 4.66669C16.839 4.66669 19.4251 5.45885 21.7584 7.04319C24.0917 8.6283 25.7834 10.7528 26.8334 13.4167C25.7834 16.0806 24.0917 18.2047 21.7584 19.789C19.4251 21.3741 16.839 22.1667 14.0001 22.1667ZM14.0001 19.8334C16.1973 19.8334 18.2149 19.2547 20.0527 18.0974C21.8899 16.9408 23.2945 15.3806 24.2667 13.4167C23.2945 11.4528 21.8899 9.89219 20.0527 8.73485C18.2149 7.5783 16.1973 7.00002 14.0001 7.00002C11.8029 7.00002 9.7853 7.5783 7.94741 8.73485C6.1103 9.89219 4.70564 11.4528 3.73341 13.4167C4.70564 15.3806 6.1103 16.9408 7.94741 18.0974C9.7853 19.2547 11.8029 19.8334 14.0001 19.8334Z" fill="#B192F3"/>
</g>
</svg>
