<?xml version="1.0" encoding="UTF-8"?>
<svg id="_레이어_2" data-name="레이어 2" xmlns="http://www.w3.org/2000/svg" viewBox="0 0 40 40">
  <defs>
    <style>
      .cls-1 {
        fill: #fff;
      }

      .cls-2 {
        fill: #b192f3;
      }
    </style>
  </defs>
  <g id="_레이어_1-2" data-name="레이어 1">
    <g>
      <rect class="cls-2" width="40" height="40" rx="6" ry="6"/>
      <path class="cls-1" d="M11.09,19.14c-.73,0-1.34-.25-1.84-.75-.5-.5-.75-1.11-.75-1.84s.25-1.34,.75-1.84c.5-.5,1.11-.75,1.84-.75s1.34,.25,1.84,.75c.5,.5,.75,1.11,.75,1.84s-.25,1.34-.75,1.84c-.5,.5-1.11,.75-1.84,.75Zm5.32-4.89c-.73,0-1.34-.25-1.84-.75s-.75-1.11-.75-1.84,.25-1.34,.75-1.84c.5-.5,1.11-.75,1.84-.75s1.34,.25,1.84,.75c.5,.5,.75,1.11,.75,1.84s-.25,1.34-.75,1.84c-.5,.5-1.11,.75-1.84,.75Zm7.19,0c-.73,0-1.34-.25-1.84-.75-.5-.5-.75-1.11-.75-1.84s.25-1.34,.75-1.84c.5-.5,1.11-.75,1.84-.75s1.34,.25,1.84,.75c.5,.5,.75,1.11,.75,1.84s-.25,1.34-.75,1.84c-.5,.5-1.11,.75-1.84,.75Zm5.32,4.89c-.73,0-1.34-.25-1.84-.75-.5-.5-.75-1.11-.75-1.84s.25-1.34,.75-1.84c.5-.5,1.11-.75,1.84-.75s1.34,.25,1.84,.75c.5,.5,.75,1.11,.75,1.84s-.25,1.34-.75,1.84c-.5,.5-1.11,.75-1.84,.75Zm-15.07,11.79c-.81,0-1.47-.3-1.98-.91-.52-.6-.78-1.32-.78-2.14s.24-1.52,.73-2.14c.49-.62,1.01-1.22,1.57-1.8,.42-.42,.81-.87,1.18-1.34s.71-.95,1.04-1.45c.56-.84,1.18-1.63,1.87-2.36,.69-.73,1.53-1.09,2.53-1.09s1.84,.36,2.54,1.09c.7,.73,1.33,1.52,1.88,2.39,.33,.5,.67,.98,1.02,1.44,.35,.46,.74,.9,1.16,1.32,.56,.58,1.08,1.17,1.57,1.8,.49,.62,.73,1.34,.73,2.14s-.26,1.54-.78,2.14c-.52,.6-1.18,.91-1.98,.91-1.04,0-2.06-.09-3.08-.26-1.02-.17-2.04-.26-3.08-.26-1.04,0-2.06,.09-3.08,.26-1.02,.17-2.04,.26-3.08,.26Z"/>
    </g>
  </g>
</svg>